<svg xmlns="http://www.w3.org/2000/svg" fill-rule="evenodd" clip-rule="evenodd">
    <path d="M 5 3 c -0.7 -1.1 -2.3 -2.3 -5 -2.3 v -0.8 c 3.2 0 5.1 1.6 5.8 3 h 5 l 8.4 8 l -7.5 7.1 l -8.5 -8 v -4.7 l -0.2 -0.1 c -0.8 -0.4 -1.8 -0.8 -3 -0.8 v -0.8 c 1.3 0 2.3 0.5 3.2 0.8 v -1.6 h 1.8 z m 8.7 6.9 c -0.3 -0.3 -0.7 -0.5 -1.1 -0.5 c -0.5 0 -1 0.2 -1.8 0.6 c -0.6 0.3 -0.9 0.5 -1.2 0.5 c -0.3 0 -0.9 -0.3 -0.8 -0.9 c 0.1 -0.2 0.2 -0.5 0.5 -0.8 c 0.6 -0.5 1.2 -0.6 1.8 -0.1 l 0.6 -0.5 c -0.4 -0.4 -0.9 -0.6 -1.4 -0.6 c -0.5 0 -0.9 0.2 -1.4 0.5 l -0.5 -0.5 l -0.6 0.5 l 0.6 0.5 c -0.5 0.6 -0.6 1.5 0.1 2.2 c 0.8 0.8 1.8 0.4 2.7 -0.2 c 0.5 -0.3 0.9 -0.5 1.2 -0.5 c 0.5 0 1 0.4 0.9 1 c -0.1 0.3 -0.2 0.6 -0.5 0.8 c -0.4 0.4 -0.7 0.5 -1 0.5 c -0.3 0 -0.6 -0.2 -0.8 -0.4 l -0.6 0.5 c 0.4 0.4 0.9 0.6 1.4 0.6 c 0.4 0 0.9 -0.2 1.3 -0.5 l 0.4 0.4 l 0.6 -0.5 l -0.4 -0.4 c 0.6 -0.7 1 -1.7 0.1 -2.4 z m -7.5 -5.4 c -0.1 0.3 -0.2 0.6 -0.4 0.8 c -0.3 0.3 -0.6 0.5 -1 0.5 c 0 0.7 0.6 1.3 1.4 1.3 c 0.7 0 1.4 -0.6 1.4 -1.3 c 0 -0.7 -0.6 -1.3 -1.4 -1.3 z" />
</svg>